
            <svg id="trend-chart" width="660" height="400" title="Stack Overflow Trends Chart" version="1.1" xmlns="http://www.w3.org/2000/svg"><g></g><g class="chart-area" transform="translate(100, 20)"><g transform="translate(0,300)" fill="none" font-size="10" font-family="sans-serif" text-anchor="middle"><path class="domain" stroke="#000" d="M0.5,6V0.5H410.5V6"></path><g class="tick" opacity="1" transform="translate(13.472938144329897,0)"><line stroke="#000" y2="6" x1="0.5" x2="0.5"></line><text fill="#000" y="9" x="0.5" dy="0.71em" style="font-size: 12px;">2009</text></g><g class="tick" opacity="1" transform="translate(45.61426116838488,0)"><line stroke="#000" y2="6" x1="0.5" x2="0.5"></line><text fill="#000" y="9" x="0.5" dy="0.71em" style="font-size: 12px;">2010</text></g><g class="tick" opacity="1" transform="translate(77.75558419243985,0)"><line stroke="#000" y2="6" x1="0.5" x2="0.5"></line><text fill="#000" y="9" x="0.5" dy="0.71em" style="font-size: 12px;">2011</text></g><g class="tick" opacity="1" transform="translate(109.89690721649484,0)"><line stroke="#000" y2="6" x1="0.5" x2="0.5"></line><text fill="#000" y="9" x="0.5" dy="0.71em" style="font-size: 12px;">2012</text></g><g class="tick" opacity="1" transform="translate(142.1262886597938,0)"><line stroke="#000" y2="6" x1="0.5" x2="0.5"></line><text fill="#000" y="9" x="0.5" dy="0.71em" style="font-size: 12px;">2013</text></g><g class="tick" opacity="1" transform="translate(174.2676116838488,0)"><line stroke="#000" y2="6" x1="0.5" x2="0.5"></line><text fill="#000" y="9" x="0.5" dy="0.71em" style="font-size: 12px;">2014</text></g><g class="tick" opacity="1" transform="translate(206.40893470790377,0)"><line stroke="#000" y2="6" x1="0.5" x2="0.5"></line><text fill="#000" y="9" x="0.5" dy="0.71em" style="font-size: 12px;">2015</text></g><g class="tick" opacity="1" transform="translate(238.5502577319588,0)"><line stroke="#000" y2="6" x1="0.5" x2="0.5"></line><text fill="#000" y="9" x="0.5" dy="0.71em" style="font-size: 12px;">2016</text></g><g class="tick" opacity="1" transform="translate(270.7796391752577,0)"><line stroke="#000" y2="6" x1="0.5" x2="0.5"></line><text fill="#000" y="9" x="0.5" dy="0.71em" style="font-size: 12px;">2017</text></g><g class="tick" opacity="1" transform="translate(302.9209621993127,0)"><line stroke="#000" y2="6" x1="0.5" x2="0.5"></line><text fill="#000" y="9" x="0.5" dy="0.71em" style="font-size: 12px;">2018</text></g><g class="tick" opacity="1" transform="translate(335.06228522336767,0)"><line stroke="#000" y2="6" x1="0.5" x2="0.5"></line><text fill="#000" y="9" x="0.5" dy="0.71em" style="font-size: 12px;">2019</text></g><g class="tick" opacity="1" transform="translate(367.2036082474227,0)"><line stroke="#000" y2="6" x1="0.5" x2="0.5"></line><text fill="#000" y="9" x="0.5" dy="0.71em" style="font-size: 12px;">2020</text></g><g class="tick" opacity="1" transform="translate(399.4329896907216,0)"><line stroke="#000" y2="6" x1="0.5" x2="0.5"></line><text fill="#000" y="9" x="0.5" dy="0.71em" style="font-size: 12px;">2021</text></g></g><g class="grid-lines" transform="translate(0,300)" fill="none" font-size="10" font-family="sans-serif" text-anchor="middle"><path class="domain" stroke="#000" d="M0.5,-300V0.5H410.5V-300"></path><g class="tick" opacity="1" transform="translate(13.472938144329897,0)"><line stroke="#000" y2="-300" x1="0.5" x2="0.5" style="stroke: #ccc; fill: none;"></line></g><g class="tick" opacity="1" transform="translate(45.61426116838488,0)"><line stroke="#000" y2="-300" x1="0.5" x2="0.5" style="stroke: #ccc; fill: none;"></line></g><g class="tick" opacity="1" transform="translate(77.75558419243985,0)"><line stroke="#000" y2="-300" x1="0.5" x2="0.5" style="stroke: #ccc; fill: none;"></line></g><g class="tick" opacity="1" transform="translate(109.89690721649484,0)"><line stroke="#000" y2="-300" x1="0.5" x2="0.5" style="stroke: #ccc; fill: none;"></line></g><g class="tick" opacity="1" transform="translate(142.1262886597938,0)"><line stroke="#000" y2="-300" x1="0.5" x2="0.5" style="stroke: #ccc; fill: none;"></line></g><g class="tick" opacity="1" transform="translate(174.2676116838488,0)"><line stroke="#000" y2="-300" x1="0.5" x2="0.5" style="stroke: #ccc; fill: none;"></line></g><g class="tick" opacity="1" transform="translate(206.40893470790377,0)"><line stroke="#000" y2="-300" x1="0.5" x2="0.5" style="stroke: #ccc; fill: none;"></line></g><g class="tick" opacity="1" transform="translate(238.5502577319588,0)"><line stroke="#000" y2="-300" x1="0.5" x2="0.5" style="stroke: #ccc; fill: none;"></line></g><g class="tick" opacity="1" transform="translate(270.7796391752577,0)"><line stroke="#000" y2="-300" x1="0.5" x2="0.5" style="stroke: #ccc; fill: none;"></line></g><g class="tick" opacity="1" transform="translate(302.9209621993127,0)"><line stroke="#000" y2="-300" x1="0.5" x2="0.5" style="stroke: #ccc; fill: none;"></line></g><g class="tick" opacity="1" transform="translate(335.06228522336767,0)"><line stroke="#000" y2="-300" x1="0.5" x2="0.5" style="stroke: #ccc; fill: none;"></line></g><g class="tick" opacity="1" transform="translate(367.2036082474227,0)"><line stroke="#000" y2="-300" x1="0.5" x2="0.5" style="stroke: #ccc; fill: none;"></line></g><g class="tick" opacity="1" transform="translate(399.4329896907216,0)"><line stroke="#000" y2="-300" x1="0.5" x2="0.5" style="stroke: #ccc; fill: none;"></line></g></g><text x="205" y="360" class="axis-label x-axis-label" style="text-anchor: middle; font-weight: bold;">Year</text><g fill="none" font-size="10" font-family="sans-serif" text-anchor="end"><path class="domain" stroke="#000" d="M-6,300.5H0.5V0.5H-6"></path><g class="tick" opacity="1" transform="translate(0,300)"><line stroke="#000" x2="-6" y1="0.5" y2="0.5"></line><text fill="#000" x="-9" y="0.5" dy="0.32em" style="font-size: 12px;">0.00%</text></g><g class="tick" opacity="1" transform="translate(0,264.70588235294116)"><line stroke="#000" x2="-6" y1="0.5" y2="0.5"></line><text fill="#000" x="-9" y="0.5" dy="0.32em" style="font-size: 12px;">2.00%</text></g><g class="tick" opacity="1" transform="translate(0,229.41176470588235)"><line stroke="#000" x2="-6" y1="0.5" y2="0.5"></line><text fill="#000" x="-9" y="0.5" dy="0.32em" style="font-size: 12px;">4.00%</text></g><g class="tick" opacity="1" transform="translate(0,194.11764705882354)"><line stroke="#000" x2="-6" y1="0.5" y2="0.5"></line><text fill="#000" x="-9" y="0.5" dy="0.32em" style="font-size: 12px;">6.00%</text></g><g class="tick" opacity="1" transform="translate(0,158.8235294117647)"><line stroke="#000" x2="-6" y1="0.5" y2="0.5"></line><text fill="#000" x="-9" y="0.5" dy="0.32em" style="font-size: 12px;">8.00%</text></g><g class="tick" opacity="1" transform="translate(0,123.52941176470588)"><line stroke="#000" x2="-6" y1="0.5" y2="0.5"></line><text fill="#000" x="-9" y="0.5" dy="0.32em" style="font-size: 12px;">10.00%</text></g><g class="tick" opacity="1" transform="translate(0,88.23529411764707)"><line stroke="#000" x2="-6" y1="0.5" y2="0.5"></line><text fill="#000" x="-9" y="0.5" dy="0.32em" style="font-size: 12px;">12.00%</text></g><g class="tick" opacity="1" transform="translate(0,52.9411764705882)"><line stroke="#000" x2="-6" y1="0.5" y2="0.5"></line><text fill="#000" x="-9" y="0.5" dy="0.32em" style="font-size: 12px;">14.00%</text></g><g class="tick" opacity="1" transform="translate(0,17.64705882352939)"><line stroke="#000" x2="-6" y1="0.5" y2="0.5"></line><text fill="#000" x="-9" y="0.5" dy="0.32em" style="font-size: 12px;">16.00%</text></g></g><g class="grid-lines" fill="none" font-size="10" font-family="sans-serif" text-anchor="end"><path class="domain" stroke="#000" d="M410,300.5H0.5V0.5H410"></path><g class="tick" opacity="1" transform="translate(0,300)"><line stroke="#000" x2="410" y1="0.5" y2="0.5" style="stroke: #ccc; fill: none;"></line></g><g class="tick" opacity="1" transform="translate(0,264.70588235294116)"><line stroke="#000" x2="410" y1="0.5" y2="0.5" style="stroke: #ccc; fill: none;"></line></g><g class="tick" opacity="1" transform="translate(0,229.41176470588235)"><line stroke="#000" x2="410" y1="0.5" y2="0.5" style="stroke: #ccc; fill: none;"></line></g><g class="tick" opacity="1" transform="translate(0,194.11764705882354)"><line stroke="#000" x2="410" y1="0.5" y2="0.5" style="stroke: #ccc; fill: none;"></line></g><g class="tick" opacity="1" transform="translate(0,158.8235294117647)"><line stroke="#000" x2="410" y1="0.5" y2="0.5" style="stroke: #ccc; fill: none;"></line></g><g class="tick" opacity="1" transform="translate(0,123.52941176470588)"><line stroke="#000" x2="410" y1="0.5" y2="0.5" style="stroke: #ccc; fill: none;"></line></g><g class="tick" opacity="1" transform="translate(0,88.23529411764707)"><line stroke="#000" x2="410" y1="0.5" y2="0.5" style="stroke: #ccc; fill: none;"></line></g><g class="tick" opacity="1" transform="translate(0,52.9411764705882)"><line stroke="#000" x2="410" y1="0.5" y2="0.5" style="stroke: #ccc; fill: none;"></line></g><g class="tick" opacity="1" transform="translate(0,17.64705882352939)"><line stroke="#000" x2="410" y1="0.5" y2="0.5" style="stroke: #ccc; fill: none;"></line></g></g><g class="lines"><path class="line" d="M2.729810996563574,231.34082111809414L5.3715635738831615,237.6558603491294L8.101374570446735,236.4728369844353L10.743127147766323,235.06142107258233L13.472938144329897,229.19632404370589L16.20274914089347,236.17883433511764L18.668384879725085,233.42705440858236L21.39819587628866,235.83191526695293L24.039948453608247,230.9895413579294L26.769759450171822,234.23691089858823L29.41151202749141,236.24458628599413L32.141323024054984,238.06521837725296L34.871134020618555,237.1057874182941L37.51288659793814,230.36828204195297L40.24269759450172,227.90886347722943L42.88445017182131,225.05656108598825L45.61426116838488,222.98127473177647L48.34407216494845,226.03575732005294L50.80970790378007,229.51925464572355L53.539518900343644,235.57265204025884L56.18127147766324,231.33400248598235L58.9110824742268,229.69857920595882L61.55283505154639,224.22171084960002L64.28264604810997,230.49463212990003L67.01245704467354,234.71145364224708L69.65420962199313,225.7044999170294L72.3840206185567,233.53619066551767L75.02577319587628,236.6303898608647L77.75558419243985,235.6055202448765L80.48539518900344,235.52365202018825L82.95103092783505,234.1317926223L85.68084192439864,238.07984525519998L88.32259450171821,237.91019628238234L91.05240549828179,237.94385890118824L93.69415807560136,235.5546414370059L96.42396907216495,236.77562275681765L99.15378006872852,238.9766019219706L101.79553264604812,236.73439256530588L104.52534364261167,237.1045715583706L107.16709621993128,238.23146020828236L109.89690721649484,235.89249492901763L112.62671821305842,235.85015906611767L115.18041237113403,233.28808898447647L117.91022336769758,232.47533306364707L120.55197594501719,232.88196318395296L123.28178694158075,228.5688199720588L125.92353951890036,228.53593061532354L128.65335051546393,226.50190666607648L131.3831615120275,229.5939417212294L134.02491408934708,227.42536210464706L136.75472508591065,223.41783668857062L139.39647766323026,224.58163820569413L142.1262886597938,225.99580579159414L144.8560996563574,222.0937399057059L147.321735395189,222.1198310216647L150.05154639175257,217.99632417499413L152.69329896907217,217.00275205874118L155.42310996563575,215.03239015477058L158.06486254295532,213.6500775525353L160.7946735395189,217.4453346528L163.5244845360825,214.92259164123533L166.16623711340208,208.79035326448235L168.89604810996562,204.7746767693294L171.53780068728523,209.5181269548353L174.2676116838488,207.87393110798826L176.99742268041237,206.7617826959294L179.463058419244,202.72745747091176L182.19286941580754,202.0847697499765L184.83462199312714,207.0759463884353L187.56443298969072,202.96784022169413L190.20618556701032,200.8995476340353L192.9359965635739,201.29061547441765L195.66580756013747,206.42840013L198.30756013745705,201.88292173584705L201.03737113402062,198.25839968565884L203.67912371134022,196.8896486209765L206.40893470790377,196.59268379198824L209.13874570446734,192.4452511995706L211.604381443299,191.43601588715296L214.33419243986256,192.86558184234707L216.97594501718214,192.6813218214353L219.70575601374568,188.35992583752355L222.34750859106526,188.00932892694706L225.0773195876289,190.08471516335294L227.80713058419246,190.37569226165294L230.44888316151201,180.90048485011766L233.1786941580756,177.3812937035118L235.82044673539517,179.95876893873532L238.5502577319588,178.71194675560588L241.28006872852234,174.87424725135884L243.83376288659792,175.86240917837648L246.5635738831615,176.35140015892944L249.20532646048107,176.76317835991767L251.93513745704468,175.30328657032942L254.57689003436425,170.8460072319706L257.30670103092785,173.46656911078236L260.03651202749137,171.80688044745884L262.67826460481103,162.82177045632352L265.4080756013746,155.80169001273532L268.04982817869416,156.69851387804118L270.7796391752577,155.97504708541766L273.5094501718213,149.65879108655295L275.9750859106529,148.5702074753294L278.7048969072165,144.02084901398823L281.3466494845361,145.44755098018237L284.0764604810997,139.86249883159414L286.7182130584192,132.29478581505884L289.44802405498285,134.6879735500765L292.1778350515464,130.22618580247058L294.819587628866,122.46032415741178L297.54939862542955,120.89725097128238L300.1911512027491,116.90108668958825L302.9209621993127,119.54810441156474L305.6507731958763,109.8771192911118L308.1164089347079,115.46885065191177L310.8462199312715,113.73516866281767L313.48797250859104,113.01537941597653L316.21778350515467,105.66962373979413L318.8595360824742,99.47437777794704L321.5893470790378,99.60289145362941L324.31915807560136,101.53804829525293L326.960910652921,97.56449689286472L329.69072164948454,84.58565936980591L332.33247422680415,86.7315764591294L335.06228522336767,96.38375066913531L337.79209621993124,85.41164822685886L340.2577319587629,78.74068899679415L342.9875429553265,68.88607020679416L345.62929553264604,76.41926590288239L348.3591065292096,72.68075848849412L351.0008591065292,65.91817829495295L353.7306701030928,64.33522150459413L356.46048109965636,79.02499970625882L359.10223367697597,60.500864364811804L361.8320446735395,51.83373300335296L364.4737972508591,55.835809673841226L367.2036082474227,56.60315843015297L369.93341924398624,53.34938354692943L372.4871134020619,40.46269563349415L375.2169243986254,30.448870379911796L377.858676975945,21.68661581830588L380.58848797250863,28.116867084123555L383.2302405498282,27.094783936888234L385.96005154639175,33.26843020632356L388.6898625429553,36.72540332412353L391.33161512027493,23.11748580667063L394.0614261168385,15.986416234976502L396.70317869415805,14.75181648619423L399.4329896907216,19.35995374890001L402.1628006872852,20.779307341623564L404.6284364261169,22.745753856247063L407.35824742268045,14.035891214100047L410,14.967970106823543" data-legend="python" style="stroke: rgb(31, 119, 180); fill: none;"></path><path class="line" d="M2.729810996563574,218.90348372359412L5.3715635738831615,211.25128355581765L8.101374570446735,218.48284391807647L10.743127147766323,207.4625250284118L13.472938144329897,211.13072685042354L16.20274914089347,203.96434118998235L18.668384879725085,212.42694984374117L21.39819587628866,212.27019665401764L24.039948453608247,201.07810132588236L26.769759450171822,201.9222895297765L29.41151202749141,203.7073406664353L32.141323024054984,198.98861626378238L34.871134020618555,205.28110009134707L37.51288659793814,199.84009042487648L40.24269759450172,196.9531700666118L42.88445017182131,191.44984917044115L45.61426116838488,196.3194253066059L48.34407216494845,195.2834568495706L50.80970790378007,198.42881002514116L53.539518900343644,193.33102996198235L56.18127147766324,189.63538776864706L58.9110824742268,189.41707608552355L61.55283505154639,186.82880314478825L64.28264604810997,188.4512728246059L67.01245704467354,183.9604902734647L69.65420962199313,185.5665715681941L72.3840206185567,184.14705627508238L75.02577319587628,173.69446868001177L77.75558419243985,179.7038386117059L80.48539518900344,180.4567876593353L82.95103092783505,181.08592961412353L85.68084192439864,172.5467550899294L88.32259450171821,170.96686896545296L91.05240549828179,162.68694397621766L93.69415807560136,157.36234605014118L96.42396907216495,152.94392631303532L99.15378006872852,157.88929272114706L101.79553264604812,159.7798375462059L104.52534364261167,158.99224554688237L107.16709621993128,157.75344270862942L109.89690721649484,153.84888438134118L112.62671821305842,157.32584331681178L115.18041237113403,158.27354615805885L117.91022336769758,153.5137099483765L120.55197594501719,148.38925918505294L123.28178694158075,147.91285964131765L125.92353951890036,146.40465115312944L128.65335051546393,144.25970746081765L131.3831615120275,150.37373078881765L134.02491408934708,153.07715045818236L136.75472508591065,152.0672515180059L139.39647766323026,146.2439404141412L142.1262886597938,144.82628680572356L144.8560996563574,142.19611753822943L147.321735395189,143.86229611191177L150.05154639175257,141.52911015150002L152.69329896907217,139.9642264229647L155.42310996563575,136.4761656192706L158.06486254295532,131.3220145447412L160.7946735395189,124.71795812234117L163.5244845360825,110.63346776085885L166.16623711340208,110.25863338552944L168.89604810996562,114.17301085159417L171.53780068728523,107.00329555136474L174.2676116838488,101.97942679814122L176.99742268041237,100.66279768514116L179.463058419244,106.91740421758237L182.19286941580754,104.91345211743533L184.83462199312714,100.98431405927647L187.56443298969072,100.63551322020004L190.20618556701032,98.72837702571175L192.9359965635739,99.8897464167706L195.66580756013747,106.62011264352356L198.30756013745705,106.14946136715884L201.03737113402062,108.75040716801178L203.67912371134022,106.01909712405885L206.40893470790377,102.00345899498825L209.13874570446734,103.03898539635884L211.604381443299,107.9231057982706L214.33419243986256,104.26090700479415L216.97594501718214,88.00694838007061L219.70575601374568,86.07194918096468L222.34750859106526,82.02463843150588L225.0773195876289,83.01434252874708L227.80713058419246,86.09988524673531L230.44888316151201,91.97322759400589L233.1786941580756,87.87371975599413L235.82044673539517,82.70366580621177L238.5502577319588,78.95222885915294L241.28006872852234,87.82081682952355L243.83376288659792,87.47207520843531L246.5635738831615,87.99872384484709L249.20532646048107,83.97674288437057L251.93513745704468,86.16669243952941L254.57689003436425,76.63897421913529L257.30670103092785,77.95486876438241L260.03651202749137,87.77573583418237L262.67826460481103,92.34516118122355L265.4080756013746,91.49470589251766L268.04982817869416,82.6519199701765L270.7796391752577,84.2897856557118L273.5094501718213,84.5766323962059L275.9750859106529,90.45839543936472L278.7048969072165,88.20302256917648L281.3466494845361,86.22660825222357L284.0764604810997,84.37770376110001L286.7182130584192,85.86948452078826L289.44802405498285,85.64607444125295L292.1778350515464,91.39126276432944L294.819587628866,91.88358172941179L297.54939862542955,95.42846313397061L300.1911512027491,91.89800668870589L302.9209621993127,89.71327261540588L305.6507731958763,99.56406919394121L308.1164089347079,102.53735907231177L310.8462199312715,103.00850572874123L313.48797250859104,107.71213253228825L316.21778350515467,101.43350779258239L318.8595360824742,100.89266436862943L321.5893470790378,98.49044815734709L324.31915807560136,101.87072804294118L326.960910652921,105.8059203846L329.69072164948454,106.71076925389411L332.33247422680415,106.7032463253353L335.06228522336767,108.21982989354706L337.79209621993124,108.06439349205885L340.2577319587629,107.25933966518821L342.9875429553265,111.27817460502354L345.62929553264604,109.16072339454706L348.3591065292096,104.92165775006472L351.0008591065292,108.78571901202355L353.7306701030928,101.31450052148821L356.46048109965636,105.44904558801176L359.10223367697597,112.95846376676468L361.8320446735395,110.51959236861177L364.4737972508591,107.44513264831767L367.2036082474227,105.20495778755293L369.93341924398624,106.46282977048236L372.4871134020619,99.50942182184122L375.2169243986254,96.30660022484119L377.858676975945,96.99642525840002L380.58848797250863,100.0769505257118L383.2302405498282,91.96784009045294L385.96005154639175,90.77868540744709L388.6898625429553,95.15380541241177L391.33161512027493,99.46095708390004L394.0614261168385,101.61876234785294L396.70317869415805,93.14607054370589L399.4329896907216,92.00712334722354L402.1628006872852,99.20771753331178L404.6284364261169,105.08553526071177L407.35824742268045,99.1306685403706L410,98.25393956347062" data-legend="javascript" style="stroke: rgb(255, 127, 14); fill: none;"></path></g></g><g transform="translate(20, 150)"><text transform="rotate(-90)" x="-50" y="0" dy="1em" class="axis-label y-axis-label" style="text-anchor: middle; font-weight: bold;">% of Stack Overflow questions that month</text></g><g class="legend" transform="translate(530, 30)" style="font-size: 12px;"><text class="legend-title" style="font-weight: bold;">Tag</text><g class="legend-items" transform="translate(0,20)"><text y="0em" x="1em">python</text><text y="1em" x="1em">javascript</text><circle cy="-0.25em" cx="0" r="0.4em" style="fill: rgb(31, 119, 180);"></circle><circle cy="0.75em" cx="0" r="0.4em" style="fill: rgb(255, 127, 14);"></circle></g><rect class="legend-box"></rect></g></svg>
        